# xmcd
#
# Track frame offsets:
# 180
# 16984
# 29956
# 45560
# 61809
# 87762
# 101825
# 120265
# 136906
# 150565
# 170587
# 188440
# 207706
#
# Disc length: 3007 seconds
#
#
# Revision: 0
# Processed by: cddbd v1.5.2PL0 Copyright (c) Steve Scherf et al.
# Submitted via: Nero 7, 11, 10, 0 
#
DISCID=a90bbd0d
DTITLE=Edd Lively and The Movers - How Can I Rock You
DYEAR=1997
DGENRE=Blues
TTITLE0=Texas Women
TTITLE1=Gypsy
TTITLE2=Never Let You Go
TTITLE3=So Bad So Blue
TTITLE4=Be True To Yourself
TTITLE5=How Can I Rock You
TTITLE6=Bad Bad Whiskey
TTITLE7=Every Night About This Time
TTITLE8=Mess Me Round
TTITLE9=Dad Gum Shame
TTITLE10=It's A Sin
TTITLE11=Prescription For The Blues
TTITLE12=She Took Everything
EXTD=
EXTT0=Texas Women
EXTT1=Gypsy
EXTT2=Never Let You Go
EXTT3=So Bad So Blue
EXTT4=Be True To Yourself
EXTT5=How Can I Rock You
EXTT6=Bad Bad Whiskey
EXTT7=Every Night About This Time
EXTT8=Mess Me Round
EXTT9=Dad Gum Shame
EXTT10=It's A Sin
EXTT11=Prescription For The Blues
EXTT12=She Took Everything
PLAYORDER=
